<svg width="23" height="20" viewBox="0 0 23 20" fill="none" xmlns="http://www.w3.org/2000/svg">
<path d="M21.1123 14.2241C20.57 13.9566 17.8779 12.6766 17.375 12.5046C16.8721 12.3231 16.5072 12.2371 16.1424 12.7721C15.7775 13.3071 14.7323 14.4916 14.4069 14.8546C14.0913 15.2081 13.7659 15.2558 13.2235 14.9884C10.0089 13.4312 7.89863 12.2085 5.77852 8.6835C5.21645 7.74733 6.3406 7.8142 7.38586 5.789C7.56336 5.43555 7.47461 5.12986 7.33655 4.86238C7.1985 4.5949 6.10394 1.98698 5.65033 0.926623C5.20659 -0.105081 4.75298 0.0382117 4.41771 0.0191061C4.10216 4.76024e-07 3.7373 0 3.37245 0C3.00759 0 2.41594 0.133739 1.91303 0.659144C1.41012 1.1941 0 2.47418 0 5.08209C0 7.69001 1.96233 10.212 2.22858 10.5654C2.50469 10.9189 6.08421 16.2684 11.5768 18.5707C15.0478 20.0227 16.4086 20.1469 18.1442 19.8985C19.1993 19.7456 21.3786 18.6184 21.8322 17.3766C22.2858 16.1347 22.2858 15.0743 22.1477 14.8546C22.0195 14.6158 21.6547 14.4821 21.1123 14.2241Z" fill="#FF8743"/>
</svg>
